<svg xmlns="http://www.w3.org/2000/svg" viewBox="0 0 128 128" width="128" height="128">
  <defs>
    <linearGradient id="bg" x1="0%" y1="0%" x2="100%" y2="100%">
      <stop offset="0%" style="stop-color:#1e1e2e"/>
      <stop offset="100%" style="stop-color:#2d2d44"/>
    </linearGradient>
    <linearGradient id="doc" x1="0%" y1="0%" x2="100%" y2="100%">
      <stop offset="0%" style="stop-color:#ffffff"/>
      <stop offset="100%" style="stop-color:#e0e0e0"/>
    </linearGradient>
    <linearGradient id="accent" x1="0%" y1="0%" x2="100%" y2="100%">
      <stop offset="0%" style="stop-color:#ff6b6b"/>
      <stop offset="100%" style="stop-color:#ee5a24"/>
    </linearGradient>
  </defs>
  <rect width="128" height="128" rx="20" fill="url(#bg)"/>
  <g transform="translate(30, 18)">
    <path d="M10,0 H48 L68,20 V90 Q68,96 62,96 H10 Q4,96 4,90 V6 Q4,0 10,0 Z" fill="url(#doc)" opacity="0.95"/>
    <path d="M48,0 L68,20 H54 Q48,20 48,14 Z" fill="#c0c0c0" opacity="0.6"/>
    <rect x="16" y="32" width="36" height="3" rx="1.5" fill="#ccc"/>
    <rect x="16" y="40" width="28" height="3" rx="1.5" fill="#ddd"/>
    <rect x="16" y="48" width="32" height="3" rx="1.5" fill="#ccc"/>
    <rect x="16" y="56" width="24" height="3" rx="1.5" fill="#ddd"/>
  </g>
  <g transform="translate(70, 68)">
    <rect x="0" y="0" width="40" height="28" rx="6" fill="url(#accent)"/>
    <text x="20" y="19" font-family="Arial, sans-serif" font-size="12" font-weight="bold" fill="white" text-anchor="middle">PDF</text>
  </g>
  <g transform="translate(58, 56)">
    <polygon points="8,0 16,10 12,10 12,18 4,18 4,10 0,10" fill="url(#accent)" opacity="0.85"/>
  </g>
</svg>
